<?xml version="1.0" standalone="no"?>
<!DOCTYPE svg PUBLIC "-//W3C//DTD SVG 20010904//EN"
 "http://www.w3.org/TR/2001/REC-SVG-20010904/DTD/svg10.dtd">
<svg version="1.0" xmlns="http://www.w3.org/2000/svg"
 width="784.000000pt" height="327.000000pt" viewBox="0 0 784.000000 327.000000"
 preserveAspectRatio="xMidYMid meet">

<g transform="translate(0.000000,327.000000) scale(0.100000,-0.100000)"
fill="#000000" stroke="none">
<path d="M3773 3096 c-365 -70 -654 -332 -739 -670 -16 -65 -18 -68 -68 -93
-289 -146 -411 -478 -282 -766 54 -122 163 -233 281 -288 114 -54 155 -59 447
-59 l269 0 -3 461 -3 461 -33 29 c-45 40 -99 40 -144 0 l-33 -29 -5 -347 -5
-347 -85 -4 c-202 -8 -320 27 -406 118 -71 76 -89 124 -89 243 0 89 3 106 28
157 50 102 167 185 297 212 24 5 26 12 37 88 23 172 91 307 212 421 234 220
579 255 861 88 185 -110 305 -289 332 -494 6 -45 12 -87 13 -93 2 -6 23 -14
46 -18 116 -19 235 -111 287 -224 22 -48 27 -70 26 -142 0 -102 -27 -170 -92
-237 -87 -89 -200 -122 -419 -123 l-82 0 -3 350 -3 350 -28 27 c-23 23 -36 28
-78 28 -45 0 -54 -4 -80 -33 l-29 -32 0 -455 0 -455 263 0 c200 0 277 4 327
16 370 87 563 488 399 831 -44 91 -169 218 -260 262 -66 32 -66 33 -79 88 -27
123 -109 275 -204 380 -113 125 -310 242 -476 283 -109 27 -297 35 -397 16z"/>
<path d="M3878 2554 c-15 -8 -32 -23 -38 -34 -6 -12 -10 -241 -10 -659 l0
-641 110 0 110 0 -2 646 -3 646 -33 29 c-37 33 -88 38 -134 13z"/>
<path d="M5615 821 c-72 -18 -132 -68 -160 -134 -10 -23 -16 -71 -17 -122 -1
-71 3 -91 26 -138 32 -66 81 -103 158 -118 123 -25 231 16 284 107 23 40 29
62 32 136 4 80 2 93 -23 143 -14 30 -42 67 -60 81 -61 46 -159 64 -240 45z
m165 -109 c39 -29 60 -80 60 -145 0 -107 -50 -167 -144 -174 -104 -8 -161 53
-161 172 0 85 21 126 80 156 48 24 125 20 165 -9z"/>
<path d="M270 565 l0 -255 50 0 50 0 0 115 c0 63 4 115 9 115 5 0 53 -52 107
-114 l99 -115 68 0 69 -1 -107 114 c-160 171 -158 138 -19 277 l119 119 -66 0
-66 0 -102 -105 c-56 -58 -105 -105 -107 -105 -2 0 -4 47 -4 105 l0 105 -50 0
-50 0 0 -255z"/>
<path d="M861 809 c-46 -18 -84 -53 -102 -93 -26 -58 -27 -244 0 -301 40 -87
86 -105 271 -105 l140 0 0 45 0 45 -136 0 -136 0 -29 29 c-21 22 -29 39 -29
65 l0 36 145 0 145 0 0 40 0 40 -145 0 -145 0 0 26 c0 74 43 94 205 94 l125 0
0 45 0 45 -142 -1 c-79 0 -154 -5 -167 -10z"/>
<path d="M1270 565 l0 -255 51 0 51 0 -4 180 c-1 99 -2 180 -1 180 3 0 251
-298 275 -330 18 -25 29 -30 65 -30 l43 0 0 255 0 255 -51 0 -50 0 3 -170 c2
-94 0 -170 -4 -170 -3 0 -19 17 -35 38 -15 21 -77 97 -138 170 l-109 132 -48
0 -48 0 0 -255z"/>
<path d="M1830 775 l0 -45 95 0 95 0 0 -210 0 -210 50 0 50 0 0 210 0 210 90
0 90 0 0 45 0 45 -235 0 -235 0 0 -45z"/>
<path d="M2461 778 c-86 -202 -191 -455 -191 -461 0 -4 22 -7 48 -7 l48 0 23
55 23 56 125 -3 126 -3 20 -52 20 -53 53 0 c30 0 54 2 54 4 0 3 -37 92 -83
198 -46 106 -94 219 -106 251 l-23 57 -60 0 -59 0 -18 -42z m89 -72 c0 -8 18
-57 40 -107 22 -51 40 -94 40 -96 0 -2 -41 -3 -91 -3 -105 0 -101 -14 -43 128
36 86 54 112 54 78z"/>
<path d="M2966 805 c-84 -30 -137 -110 -144 -220 -6 -91 10 -146 56 -197 60
-67 95 -78 255 -78 l137 0 0 45 0 45 -124 0 c-111 0 -126 2 -157 23 -51 34
-71 80 -67 154 7 121 56 153 231 153 l117 0 0 45 0 45 -132 0 c-87 -1 -147 -6
-172 -15z"/>
<path d="M3455 801 c-49 -22 -91 -69 -106 -119 -6 -22 -9 -83 -7 -143 3 -96 6
-109 31 -148 45 -68 85 -81 255 -81 l142 0 0 45 0 45 -134 0 c-125 0 -137 2
-161 23 -18 15 -28 36 -32 65 l-6 42 147 0 146 0 0 40 0 40 -145 0 -145 0 0
25 c0 14 13 39 29 57 l29 33 136 3 136 4 0 44 0 44 -137 0 c-112 0 -146 -4
-178 -19z"/>
<path d="M3860 565 l0 -255 50 0 50 0 2 174 3 174 145 -174 144 -174 43 0 43
0 0 255 0 255 -50 0 -50 0 -2 -170 -3 -170 -80 97 c-44 54 -108 130 -143 170
-61 70 -65 73 -108 73 l-44 0 0 -255z"/>
<path d="M4410 775 l0 -45 90 0 90 0 0 -210 0 -210 50 0 50 0 0 210 0 210 95
0 95 0 0 45 0 45 -235 0 -235 0 0 -45z"/>
<path d="M4950 565 l0 -255 50 0 50 0 0 95 0 95 45 0 c44 0 46 -1 98 -72 30
-40 59 -83 66 -95 10 -20 20 -23 71 -23 33 0 60 2 60 5 0 3 -29 45 -65 93 -69
92 -73 102 -51 102 8 0 30 15 49 33 85 79 63 219 -40 263 -23 10 -78 14 -183
14 l-150 0 0 -255z m300 145 c20 -20 27 -74 12 -96 -16 -24 -54 -34 -131 -34
l-81 0 0 75 0 75 90 0 c77 0 93 -3 110 -20z"/>
<path d="M6262 608 c3 -195 5 -215 23 -240 36 -48 52 -52 193 -56 l132 -4 0
46 0 46 -104 0 c-151 0 -144 -10 -148 225 l-3 190 -48 3 -48 3 3 -213z"/>
<path d="M6680 564 l0 -256 148 4 c165 4 201 15 260 82 38 44 52 91 52 182 0
120 -58 206 -159 234 -20 5 -96 10 -168 10 l-133 0 0 -256z m280 148 c55 -27
80 -74 80 -147 0 -113 -59 -165 -187 -165 l-73 0 0 165 0 165 73 0 c49 0 83
-6 107 -18z"/>
<path d="M7340 798 c-59 -138 -200 -480 -200 -484 0 -3 23 -4 51 -2 l51 3 22
52 21 53 121 0 122 0 22 -55 22 -55 53 0 53 0 -108 253 -108 252 -56 3 c-50 3
-57 1 -66 -20z m80 -103 c0 -7 16 -50 35 -95 19 -45 35 -86 35 -91 0 -5 -39
-9 -86 -9 -76 0 -85 2 -80 17 54 139 81 201 88 197 4 -3 8 -11 8 -19z"/>
<path d="M5951 333 c-13 -43 -26 -86 -28 -95 -4 -15 1 -18 29 -18 35 0 36 1
72 88 20 48 36 91 36 95 0 4 -19 7 -43 7 l-43 0 -23 -77z"/>
</g>
</svg>
