<?xml version="1.0" standalone="no"?>
<!DOCTYPE svg PUBLIC "-//W3C//DTD SVG 20010904//EN"
 "http://www.w3.org/TR/2001/REC-SVG-20010904/DTD/svg10.dtd">
<svg version="1.0" xmlns="http://www.w3.org/2000/svg"
 width="1024.000000pt" height="1024.000000pt" viewBox="0 0 1024.000000 1024.000000"
 preserveAspectRatio="xMidYMid meet">

<g transform="translate(0.000000,1024.000000) scale(0.100000,-0.100000)"
fill="#000000" stroke="none">
<path d="M4922 8599 c-991 -88 -1758 -750 -1970 -1700 -17 -74 -33 -161 -37
-194 -10 -94 -8 -92 -83 -104 -260 -44 -549 -159 -775 -307 -398 -261 -694
-648 -846 -1109 -264 -794 -87 -1622 469 -2199 456 -474 1078 -716 1840 -716
272 0 358 25 470 139 68 69 106 139 125 228 23 105 22 2482 0 2568 -36 136
-120 240 -243 298 -63 30 -73 32 -182 32 -108 0 -119 -2 -182 -32 -115 -54
-192 -148 -232 -282 -14 -49 -16 -167 -16 -1093 l0 -1039 -47 6 c-194 27 -371
79 -533 156 -185 88 -308 177 -451 326 -188 196 -297 414 -344 687 -18 103
-20 311 -4 422 72 520 427 947 944 1139 138 51 365 107 590 144 104 18 190 33
191 34 1 1 7 85 13 187 21 327 48 493 111 681 72 219 168 376 327 540 121 124
223 201 366 273 305 155 682 201 1036 124 420 -90 767 -351 956 -719 102 -198
152 -374 185 -644 11 -96 30 -346 30 -407 0 -35 1 -36 43 -43 679 -105 998
-235 1288 -524 128 -129 195 -220 268 -367 99 -201 144 -398 144 -634 0 -351
-117 -647 -358 -899 -129 -135 -256 -225 -445 -314 -174 -83 -347 -135 -542
-162 l-48 -6 0 1028 c0 1114 1 1093 -55 1203 -35 70 -113 143 -192 181 -59 29
-81 34 -166 37 -83 4 -107 1 -160 -18 -145 -53 -242 -161 -283 -313 -11 -43
-14 -262 -14 -1292 0 -800 4 -1256 11 -1284 27 -119 129 -250 237 -305 101
-51 163 -59 422 -53 407 10 737 77 1059 214 625 266 1087 794 1245 1421 53
210 60 272 61 532 0 317 -28 496 -117 755 -212 616 -689 1105 -1282 1314 -96
34 -293 85 -367 96 l-46 7 -6 63 c-20 208 -109 515 -211 720 -347 702 -1013
1139 -1835 1204 -150 12 -222 12 -359 0z"/>
<path d="M5022 6449 c-161 -31 -296 -168 -337 -340 -22 -93 -22 -3387 -1
-3490 40 -185 181 -319 371 -352 186 -32 374 70 463 252 l37 76 3 1730 c1
1177 -1 1746 -8 1781 -43 206 -225 356 -430 353 -30 -1 -74 -5 -98 -10z"/>
</g>
</svg>
